<?xml version="1.0" encoding="utf-8"?>
<!-- Generator: Adobe Illustrator 25.4.1, SVG Export Plug-In . SVG Version: 6.00 Build 0)  -->
<svg version="1.1" id="Layer_1" xmlns="http://www.w3.org/2000/svg" xmlns:xlink="http://www.w3.org/1999/xlink" x="0px" y="0px"
	 viewBox="0 0 288 101.61" style="enable-background:new 0 0 288 101.61;" xml:space="preserve">
<style type="text/css">
	.st0{fill:#DBC34E;}
	.st1{fill:url(#SVGID_1_);}
	.st2{fill:#253F51;}
	.st3{fill:#486376;}
	.st4{fill:#9FA1A4;}
</style>
<g>
	<path class="st0" d="M50.93,8.54c-2.2-6.57-14.75-8.3-28.02-3.86C9.63,9.12,0.65,18.05,2.85,24.63c1.48,4.41,7.61,6.63,15.49,6.28
		c0,0,0,0,0,0c1.36,0,2.78-0.06,3.92-0.24c5.21-0.82,6.94-1.23,12.24-3.44c3.44-1.44,6.06-3.07,7.88-4.39
		C48.86,18.38,52.4,12.94,50.93,8.54z M18.96,28.56C18.96,28.56,18.96,28.56,18.96,28.56c-5.43,0.21-9.47-1.09-10.38-3.8
		C7.1,20.36,14.5,13.91,25.1,10.36c10.6-3.55,20.39-2.85,21.86,1.56c0.88,2.62-1.39,5.94-5.58,8.96c-1.04,0.71-2.22,1.47-3.44,2.17
		c-1.36,0.75-2.83,1.46-4.4,2.11C27.53,27.33,25.08,28.04,18.96,28.56z"/>
	<linearGradient id="SVGID_1_" gradientUnits="userSpaceOnUse" x1="9.1972" y1="24.305" x2="46.8797" y2="24.305">
		<stop  offset="0" style="stop-color:#D2BF2A"/>
		<stop  offset="0.2489" style="stop-color:#CEC28A"/>
		<stop  offset="0.8145" style="stop-color:#CEC28A"/>
		<stop  offset="1" style="stop-color:#D2BF2A"/>
	</linearGradient>
	<path class="st1" d="M45,17.66c-0.94,1.08-2.16,2.17-3.61,3.22c-1.04,0.71-2.22,1.47-3.44,2.17c-1.36,0.75-2.83,1.46-4.4,2.11
		c-6.02,2.17-8.47,2.88-14.59,3.4c0,0,0,0,0,0c-3.12,0.12-5.77-0.26-7.64-1.11L9.2,29.91c2.54,0.81,5.67,1.16,9.15,1c0,0,0,0,0,0
		c1.36,0,2.78-0.06,3.92-0.24c5.21-0.82,6.94-1.23,12.24-3.44c3.44-1.44,6.06-3.07,7.88-4.39c1.72-1.18,3.22-2.44,4.49-3.72
		L45,17.66z"/>
	<g>
		<path class="st2" d="M41.24,23.56c-0.47,5.36-5.64,9.21-6.82,8.13c-0.94-0.89,7.38-8.84,3.15-10.48
			c-3.86-1.55-10.95,1.83-18.15,14.62c-4.61,8.23-6.58,20.54-0.28,20.54c3.29,0.05,8.56-7.52,10.86-11.42
			c-2.44-0.09-5.27,0.09-8.04,0.8c-1.13,0.28-0.66-2.77,0.85-3.62c1.65-0.85,6.86-1.74,11.8-1.36c2.63,0.23,2.12,5.78,1.08,5.31
			c-0.52-0.23-1.18-0.47-1.97-0.66c-3.9,9.17-4.33,13.16-4.61,16.45c-0.09,1.18-4.84-0.05-4.28-2.91c0.14-0.94,0.47-2.02,0.85-3.2
			c-2.59,3.1-5.64,5.45-9.12,5.27c-5.31-0.33-8.51-6.77-5.74-18.05c5.22-18.34,18.05-27.46,25.34-25.67
			C40.68,18.53,41.38,22.1,41.24,23.56z"/>
		<path class="st2" d="M57.37,41.99c-1.32,2.73-3.76,6.3-6.63,6.44c-3.2,5.31-6.72,6.44-9.45,5.78c-2.96-0.71-5.36-4.65-2.77-11.28
			c2.87-7.48,7.71-10.95,12.27-9.97c2.82,0.61,4.75,4,2.77,9.5c-0.47,1.27-0.99,2.49-1.5,3.53c1.55-0.28,3.1-1.83,4.42-4.18
			C57.09,40.77,57.66,41.33,57.37,41.99z M48.39,47.44c-0.99-1.79,0.56-6.02,2.68-6.44c1.08-3.43,0.8-5.5-0.66-5.78
			c-2.77-0.56-5.97,4.42-7.71,8.7c-1.32,3.24-1.55,6.68,0.33,7.19C45.06,51.63,46.89,50.08,48.39,47.44z"/>
		<path class="st2" d="M81.02,26.43c-4.33,6.3-14.9,25.25-11.52,25.25c1.46,0,5.55-5.92,7.71-9.59c0.28-0.42,0.61-0.85,1.03-0.75
			c0.28,0.09,0.33,0.42-0.09,1.18c-1.13,2.16-3.01,5.78-4.61,7.85c-1.36,1.79-2.96,3.86-5.08,3.86c-2.68,0-3.53-2.26-3.53-4.14
			c0-1.08,0.19-2.35,0.52-3.67c-2.35,3.67-5.22,7.76-7.15,7.76c-3.76,0-4.42-2.96-4.42-4.47c0-5.13,5.88-16.6,11.85-16.6
			c2.44,0,3.57,1.22,4,2.73c2.77-5.59,6.02-10.72,7.24-12.65C77.54,22.34,82.1,24.88,81.02,26.43z M67.76,39.26
			c0.75-1.41,0.75-2.73,0.05-3.01c-2.87-0.99-9.4,11.42-9.4,14.72c0,0.47,0.09,0.66,0.33,0.66C60.29,51.63,65.84,43.02,67.76,39.26z
			"/>
		<path class="st2" d="M85.49,34.61c-0.94,1.22-1.41,4.14-1.46,13.4c0,6.3-4.14,9.73-8.56,8.6c-4.23-1.08-4.14-5.17-3.24-7.52
			c0.66-1.83,1.69-1.41,1.69-1.41s-1.6,5.17,2.54,5.17c3.71,0,3.81-7.48,3.53-12.69c-0.99,1.83-2.54,4.14-4.47,7.05
			c-0.89,1.36-1.69,0.05-1.22-0.66c3.06-4.42,5.12-8.56,5.83-10.11c0.47-1.93,1.6-3.24,3.06-3.24
			C84.36,33.2,85.53,33.67,85.49,34.61z"/>
		<path class="st3" d="M111.3,20.79c-4.04-1.5-10.95,1.97-17.02,14.95c-3.9,8.42-4.7,20.92,1.69,20.92
			c8.6,0,14.86-12.79,15.42-13.77c0.56-1.03,1.32-0.85,0.75,0.71c-1.74,4.8-9.45,18.76-18.38,17.77c-5.41-0.28-9.26-6.77-7.52-18.29
			c3.53-18.66,15.66-28.02,23.22-26.23c4.75,1.18,5.78,4.84,5.78,6.35c0,5.45-4.84,9.36-6.16,8.27
			C108.05,30.57,115.76,22.43,111.3,20.79z"/>
		<path class="st3" d="M132.36,42.93c-1.18,2.16-5.74,11.66-9.59,11.66c-2.63,0-4.14-2.45-3.43-5.69c0.75-3.71,2.49-8.13,4.84-12.27
			c-0.52,0.23-1.74,1.46-3.2,3.1c-2.91,3.43-6.77,8.46-8.37,12.65c-0.09,0.38-0.19,0.75-0.28,1.08c-0.09,0.38,0,0.75-0.61,0.75
			c-1.5,0-4.18-1.55-3.48-3.48c3.76-11,12.6-26.42,13.82-28.35c0.56-0.85,5.12,1.69,4.04,3.24c-2.4,3.53-6.68,10.44-9.87,17.25
			c2.82-4.18,6.11-8.18,8.42-9.21h0.05c0,0,0.05,0,0.09-0.05c0,0,0,0,0.05,0c0.28-0.09,0.52-0.19,0.71-0.19
			c1.79,0.28,4.84,3.15,3.95,4.56c-4.04,6.25-7.33,14.01-5.88,14.01c1.36,0,5.64-5.83,7.8-9.54c0.24-0.38,0.61-0.85,0.99-0.71
			C132.74,41.85,132.78,42.13,132.36,42.93z"/>
		<path class="st3" d="M142.66,42.51c-1.46,2.68-1.97,3.81-4.61,7.85c-1.27,1.93-3.2,3.86-5.36,3.86c-2.68,0-3.43-2.26-3.34-4.18
			c0.23-4.28,3.9-12.18,6.44-15.89c0.61-0.85,4.98,0.94,3.95,2.59c-4.09,6.44-7.62,14.9-5.88,14.9c1.46,0,5.5-5.88,7.85-9.59
			c0.28-0.38,0.66-0.85,1.03-0.71C143.03,41.43,143.08,41.71,142.66,42.51z M146.09,26.33c-0.75,1.55-3.53,5.64-4.61,5.64
			c-0.8,0-1.97-0.89-1.97-2.26c0-1.55,1.69-5.59,3.95-5.59C144.91,24.13,146.42,25.68,146.09,26.33z"/>
		<path class="st3" d="M143.93,51.68c1.41,0,5.55-5.92,7.71-9.59c0.23-0.42,0.61-0.85,0.99-0.71c0.33,0.05,0.38,0.38-0.05,1.18
			c-1.18,2.12-3.01,5.74-4.61,7.8c-1.36,1.79-2.96,3.9-5.08,3.9c-2.68,0-3.57-2.3-3.57-4.18c0-7.66,9.31-22.24,11.66-25.9
			c0.56-0.89,5.17,1.65,4.09,3.24C150.69,33.72,140.49,51.68,143.93,51.68z"/>
		<path class="st3" d="M176.55,26.43c-4.33,6.3-14.9,25.25-11.52,25.25c1.46,0,5.55-5.92,7.71-9.59c0.28-0.42,0.61-0.85,1.03-0.75
			c0.28,0.09,0.33,0.42-0.09,1.18c-1.13,2.16-3.01,5.78-4.61,7.85c-1.36,1.79-2.96,3.86-5.08,3.86c-2.68,0-3.53-2.26-3.53-4.14
			c0-1.08,0.19-2.35,0.52-3.67c-2.35,3.67-5.22,7.76-7.15,7.76c-3.76,0-4.42-2.96-4.42-4.47c0-5.13,5.88-16.6,11.85-16.6
			c2.45,0,3.57,1.22,4,2.73c2.77-5.59,6.02-10.72,7.24-12.65C173.07,22.34,177.63,24.88,176.55,26.43z M163.29,39.26
			c0.75-1.41,0.75-2.73,0.05-3.01c-2.87-0.99-9.4,11.42-9.4,14.72c0,0.47,0.09,0.66,0.33,0.66
			C155.82,51.63,161.37,43.02,163.29,39.26z"/>
		<path class="st0" d="M219.99,30.33c0,14.72-15.04,31.03-27.46,31.03c-5.36,0-5.88-5.45-5.88-5.45s2.02,0.56,5.08,0.52
			c-1.08-0.89-1.93-2.54-1.93-3.57c-0.09-4.23,12.22-28.87,14.48-28.91c2.3-0.05,3.06,1.27,2.63,1.74
			c-0.42,0.42-11.52,20.36-12.88,30.51c4.28-0.56,9.73-2.63,14.57-8.46c7.8-9.5,10.16-21.67,5.97-25.06
			c-5.41-4.33-11.16-3.11-14.21,2.96c-0.24,0.52-1.93-3.1-1.93-4.37c0-4.14,3.12-5.4,9.7-4.6C214.54,17.45,219.99,21.4,219.99,30.33
			z"/>
		<path d="M219.9,50.97c0,1.41-1.08,2.54-2.44,2.54c-1.36,0-2.45-1.13-2.45-2.54c0-1.36,1.08-2.49,2.45-2.49
			C218.82,48.48,219.9,49.61,219.9,50.97z"/>
		<path d="M227.3,54.21c-4.56-0.42-5.78-3.71-5.27-7.48c0.71-4.94,4.98-14.43,11.19-13.82c2.91,0.28,3.95,2.16,3.95,3.29
			c0.05,2.49-1.27,4.37-2.63,4.37c-0.85,0-0.66-0.75-0.42-0.99c0.85-0.94,1.79-3.43,0.38-3.86c-3.38-0.99-10.86,14.01-6.77,15.8
			c3.81,1.65,9.54-8.79,10.01-9.73c0.42-0.94,1.08-0.7,0.99-0.09C238.68,42.13,233.37,54.73,227.3,54.21z"/>
		<path d="M255.18,41.99c-1.32,2.73-3.76,6.3-6.63,6.44c-3.2,5.31-6.72,6.44-9.45,5.78c-2.96-0.71-5.36-4.65-2.77-11.28
			c2.87-7.48,7.71-10.95,12.27-9.97c2.82,0.61,4.75,4,2.77,9.5c-0.47,1.27-0.99,2.49-1.5,3.53c1.55-0.28,3.1-1.83,4.42-4.18
			C254.9,40.77,255.46,41.33,255.18,41.99z M246.2,47.44c-0.99-1.79,0.56-6.02,2.68-6.44c1.08-3.43,0.8-5.5-0.66-5.78
			c-2.77-0.56-5.97,4.42-7.71,8.7c-1.32,3.24-1.55,6.68,0.33,7.19C242.86,51.63,244.7,50.08,246.2,47.44z"/>
		<path d="M285.27,42.88c-1.17,2.12-5.78,11.66-9.64,11.66c-2.59,0-4.42-1.69-3.81-5.17c0.66-3.76,1.88-7.01,4.23-11.14
			c-3.85,3.29-8.79,10.58-10.48,14.06c-0.14,0.56-3.38-0.94-3.53-2.35c-0.23-1.83,3.38-10.53,5.59-14.67c0-0.05,0.05-0.09,0.05-0.14
			c0.05,0,0.05,0,0.05-0.05C265.9,36.3,255.7,49,254.24,54.07c-0.23,0.8-3.48-1.55-3.67-2.91c-0.28-2.12,5.36-14.43,7.05-17.11
			c1.22-1.88,4.51,1.22,4.14,2.02c-1.74,3.53-3.01,6.11-4.04,8.37c3.62-5.88,8.56-12.36,11.28-12.6c1.65,0.23,3.76,2.91,3.76,3.9
			c0,0.1-2.26,3.57-3.71,7.19c0-0.05,0.05-0.09,0.05-0.14c3.15-4,6.63-7.48,8.32-7.76c1.79,0.28,4.84,3.15,3.95,4.51
			c-4.04,6.3-6.35,12.41-4.89,12.41c1.41,0,5.69-5.88,7.85-9.54c0.23-0.38,0.61-0.85,0.99-0.71
			C285.65,41.8,285.69,42.08,285.27,42.88z"/>
		<path class="st0" d="M194.77,16.65c-4.94-0.38-10.15,0.52-11.8,1.36c-1.5,0.85-1.97,3.9-0.85,3.62c2.08-0.53,4.2-0.77,6.15-0.81
			c-1.2,5.77-11.17,25.91-16.16,34.64c-1.61,0.27-2.89,0.63-3.57,0.97c-1.5,0.85-1.97,3.9-0.85,3.62c2.77-0.7,5.59-0.89,8.04-0.8
			c1.78-0.04,2.14,0.11,3.71,0.47c0.8,0.19,1.46,0.42,1.97,0.66c1.03,0.47,1.55-5.08-1.08-5.31c-0.68-0.05-1.36-0.08-2.04-0.08
			c4.17-7.91,13.78-28.3,13.78-31.73c0-0.59-0.01-1.45-0.24-2.37c0.61,0.07,1.11,0.21,2.02,0.42c0.8,0.19,1.46,0.42,1.97,0.66
			C196.89,22.43,197.4,16.89,194.77,16.65z"/>
	</g>
	<g>
		<path class="st4" d="M52.92,68.65h1.51v4.51h5.45v-4.51h1.52v10.79h-1.52V74.5h-5.45v4.94h-1.51V68.65z"/>
		<path class="st4" d="M70.7,75.76c0,0.08,0,0.16,0,0.24c0,0.08-0.01,0.16-0.02,0.24h-5.74c0.01,0.3,0.08,0.59,0.21,0.85
			c0.13,0.27,0.3,0.5,0.51,0.7c0.21,0.2,0.46,0.35,0.74,0.46c0.28,0.11,0.58,0.17,0.89,0.17c0.49,0,0.91-0.11,1.26-0.32
			c0.36-0.21,0.63-0.47,0.84-0.78l1.01,0.81c-0.39,0.51-0.84,0.89-1.36,1.13c-0.52,0.24-1.1,0.36-1.74,0.36
			c-0.55,0-1.06-0.09-1.52-0.27c-0.47-0.18-0.87-0.44-1.2-0.77c-0.34-0.33-0.6-0.73-0.79-1.2c-0.19-0.47-0.29-0.98-0.29-1.55
			c0-0.56,0.09-1.07,0.28-1.55c0.19-0.47,0.45-0.88,0.79-1.21c0.34-0.33,0.73-0.6,1.19-0.78c0.46-0.19,0.95-0.28,1.48-0.28
			c0.53,0,1.01,0.09,1.44,0.26c0.43,0.17,0.8,0.42,1.1,0.75c0.3,0.32,0.53,0.72,0.69,1.18C70.62,74.66,70.7,75.18,70.7,75.76z
			 M69.24,75.18c-0.01-0.29-0.06-0.55-0.15-0.8c-0.09-0.25-0.21-0.46-0.38-0.65c-0.17-0.18-0.38-0.33-0.62-0.43
			c-0.25-0.11-0.54-0.16-0.88-0.16c-0.3,0-0.59,0.05-0.86,0.16c-0.27,0.11-0.5,0.25-0.7,0.43c-0.2,0.18-0.36,0.4-0.49,0.65
			c-0.13,0.25-0.2,0.51-0.22,0.8H69.24z"/>
		<path class="st4" d="M74.14,79.43h-1.43V67.91h1.43V79.43z"/>
		<path class="st4" d="M78.07,83.09h-1.43V72.21h1.4v1.13h0.05c0.23-0.39,0.58-0.7,1.03-0.95s0.98-0.37,1.57-0.37
			c0.54,0,1.03,0.1,1.47,0.29c0.44,0.19,0.82,0.46,1.14,0.81c0.32,0.35,0.56,0.75,0.74,1.21c0.17,0.46,0.26,0.96,0.26,1.49
			c0,0.53-0.09,1.03-0.26,1.49c-0.17,0.47-0.42,0.87-0.73,1.22c-0.31,0.34-0.69,0.62-1.14,0.81c-0.45,0.2-0.95,0.3-1.5,0.3
			c-0.52,0-1-0.11-1.46-0.34c-0.46-0.22-0.82-0.54-1.08-0.94h-0.05V83.09z M82.83,75.81c0-0.33-0.05-0.66-0.15-0.97
			c-0.1-0.31-0.25-0.59-0.46-0.84c-0.2-0.24-0.45-0.44-0.75-0.58c-0.3-0.14-0.65-0.21-1.04-0.21c-0.37,0-0.7,0.07-1,0.21
			c-0.3,0.14-0.56,0.34-0.77,0.58c-0.21,0.24-0.38,0.52-0.5,0.84c-0.12,0.31-0.18,0.64-0.18,0.99c0,0.34,0.06,0.68,0.18,0.99
			c0.12,0.31,0.28,0.59,0.5,0.83c0.21,0.24,0.47,0.43,0.77,0.57c0.3,0.14,0.63,0.21,1,0.21c0.4,0,0.74-0.07,1.04-0.22
			c0.3-0.15,0.55-0.34,0.75-0.59c0.2-0.24,0.36-0.52,0.46-0.84C82.78,76.47,82.83,76.14,82.83,75.81z"/>
		<path class="st4" d="M87.98,69.61c0,0.26-0.09,0.48-0.28,0.66c-0.19,0.17-0.41,0.26-0.67,0.26c-0.26,0-0.48-0.09-0.66-0.27
			c-0.18-0.18-0.27-0.39-0.27-0.65c0-0.26,0.09-0.48,0.27-0.66c0.18-0.18,0.4-0.27,0.66-0.27c0.26,0,0.49,0.09,0.67,0.27
			C87.88,69.12,87.98,69.34,87.98,69.61z M87.75,79.43h-1.43v-7.22h1.43V79.43z"/>
		<path class="st4" d="M91.54,72.21c0.02,0.18,0.04,0.39,0.05,0.62c0.01,0.23,0.02,0.42,0.02,0.57h0.05
			c0.09-0.19,0.22-0.37,0.37-0.54c0.16-0.17,0.34-0.31,0.54-0.44c0.2-0.13,0.43-0.23,0.67-0.3c0.24-0.07,0.5-0.11,0.76-0.11
			c0.47,0,0.87,0.08,1.2,0.24s0.61,0.37,0.84,0.63c0.22,0.26,0.39,0.57,0.49,0.93c0.11,0.36,0.16,0.74,0.16,1.14v4.48h-1.43v-4.01
			c0-0.29-0.02-0.57-0.07-0.84c-0.05-0.26-0.13-0.5-0.25-0.7c-0.12-0.2-0.29-0.37-0.5-0.49c-0.21-0.12-0.49-0.18-0.82-0.18
			c-0.57,0-1.03,0.22-1.39,0.65c-0.36,0.43-0.54,1.01-0.54,1.73v3.84h-1.43v-5.67c0-0.19-0.01-0.44-0.02-0.75s-0.03-0.57-0.05-0.81
			H91.54z"/>
		<path class="st4" d="M99.68,80.67c0.31,0.36,0.71,0.64,1.18,0.85c0.47,0.21,0.96,0.32,1.45,0.32c0.48,0,0.88-0.07,1.2-0.21
			c0.32-0.14,0.59-0.33,0.78-0.56c0.2-0.24,0.34-0.52,0.43-0.85c0.09-0.32,0.13-0.68,0.13-1.05v-0.93h-0.03
			c-0.26,0.41-0.62,0.72-1.08,0.93c-0.46,0.21-0.94,0.32-1.46,0.32c-0.55,0-1.05-0.1-1.5-0.29c-0.45-0.19-0.84-0.46-1.15-0.79
			c-0.31-0.34-0.56-0.73-0.73-1.18c-0.17-0.45-0.26-0.94-0.26-1.45s0.09-1.01,0.26-1.46c0.17-0.46,0.42-0.86,0.73-1.2
			c0.31-0.34,0.7-0.61,1.14-0.81c0.45-0.2,0.94-0.3,1.49-0.3c0.52,0,1.01,0.11,1.49,0.33c0.47,0.22,0.85,0.56,1.12,1.02h0.03v-1.16
			h1.39v6.86c0,0.53-0.07,1.03-0.2,1.52c-0.13,0.48-0.36,0.91-0.67,1.28c-0.31,0.37-0.73,0.67-1.23,0.89
			c-0.51,0.22-1.14,0.33-1.89,0.33c-0.63,0-1.26-0.11-1.9-0.34c-0.63-0.23-1.18-0.55-1.64-0.97L99.68,80.67z M100.1,75.75
			c0,0.34,0.05,0.66,0.16,0.96c0.11,0.3,0.26,0.57,0.47,0.81c0.21,0.23,0.46,0.42,0.76,0.56c0.3,0.14,0.63,0.21,1.01,0.21
			c0.37,0,0.7-0.07,1.01-0.2c0.31-0.13,0.57-0.31,0.78-0.54c0.21-0.23,0.38-0.5,0.5-0.81c0.12-0.31,0.18-0.64,0.18-1
			c0-0.34-0.06-0.67-0.18-0.97c-0.12-0.3-0.29-0.57-0.5-0.81c-0.22-0.23-0.48-0.42-0.78-0.56c-0.3-0.14-0.63-0.21-1-0.21
			c-0.38,0-0.71,0.07-1.01,0.21c-0.3,0.14-0.55,0.32-0.76,0.55c-0.21,0.23-0.37,0.5-0.47,0.81C100.16,75.07,100.1,75.4,100.1,75.75z
			"/>
		<path class="st4" d="M112.63,68.65h3.29c0.58,0,1.11,0.06,1.58,0.17c0.48,0.12,0.88,0.3,1.22,0.54c0.34,0.24,0.59,0.55,0.78,0.93
			c0.18,0.38,0.27,0.83,0.27,1.36c0,0.54-0.1,1-0.3,1.39c-0.2,0.39-0.47,0.7-0.82,0.94c-0.35,0.24-0.77,0.42-1.25,0.54
			c-0.48,0.12-1,0.17-1.56,0.17h-1.71v4.74h-1.51V68.65z M114.13,73.41h1.6c0.37,0,0.7-0.03,1.01-0.1c0.31-0.07,0.58-0.17,0.8-0.3
			c0.22-0.14,0.4-0.32,0.52-0.54c0.12-0.22,0.18-0.5,0.18-0.82s-0.06-0.6-0.19-0.82c-0.13-0.22-0.3-0.4-0.52-0.53
			c-0.22-0.14-0.48-0.23-0.78-0.29c-0.3-0.06-0.63-0.08-0.99-0.08h-1.63V73.41z"/>
		<path class="st4" d="M120.9,73.02c-0.01-0.3-0.03-0.57-0.05-0.81h1.36c0.02,0.18,0.04,0.39,0.05,0.63
			c0.01,0.24,0.02,0.44,0.02,0.59h0.05c0.2-0.43,0.5-0.77,0.89-1.03c0.39-0.26,0.83-0.39,1.32-0.39c0.22,0,0.41,0.02,0.56,0.06
			l-0.06,1.33c-0.2-0.05-0.42-0.08-0.66-0.08c-0.35,0-0.64,0.06-0.9,0.19c-0.25,0.13-0.46,0.3-0.63,0.51
			c-0.17,0.21-0.29,0.46-0.37,0.74c-0.08,0.28-0.12,0.57-0.12,0.88v3.79h-1.43v-5.67C120.91,73.57,120.91,73.32,120.9,73.02z"/>
		<path class="st4" d="M133.47,75.81c0,0.56-0.1,1.07-0.3,1.54c-0.2,0.47-0.47,0.87-0.82,1.21c-0.35,0.34-0.76,0.61-1.24,0.79
			c-0.48,0.19-0.99,0.28-1.54,0.28c-0.55,0-1.06-0.09-1.54-0.28c-0.48-0.19-0.89-0.45-1.23-0.79c-0.35-0.34-0.62-0.74-0.82-1.21
			c-0.2-0.47-0.3-0.98-0.3-1.54c0-0.56,0.1-1.07,0.3-1.53c0.2-0.46,0.47-0.86,0.82-1.2s0.76-0.6,1.23-0.78
			c0.48-0.19,0.99-0.28,1.54-0.28c0.55,0,1.06,0.09,1.54,0.28c0.48,0.19,0.89,0.45,1.24,0.78c0.35,0.33,0.62,0.73,0.82,1.2
			C133.37,74.74,133.47,75.25,133.47,75.81z M131.97,75.81c0-0.34-0.05-0.67-0.16-0.99c-0.11-0.31-0.26-0.59-0.47-0.83
			c-0.2-0.24-0.46-0.43-0.76-0.57c-0.3-0.14-0.64-0.21-1.03-0.21c-0.39,0-0.73,0.07-1.03,0.21c-0.3,0.14-0.55,0.33-0.76,0.57
			c-0.2,0.24-0.36,0.51-0.47,0.83c-0.11,0.31-0.16,0.64-0.16,0.99c0,0.34,0.05,0.67,0.16,0.99c0.11,0.31,0.26,0.59,0.47,0.84
			c0.2,0.24,0.46,0.44,0.76,0.58c0.3,0.14,0.64,0.21,1.03,0.21c0.39,0,0.73-0.07,1.03-0.21c0.3-0.14,0.55-0.33,0.76-0.58
			c0.2-0.24,0.36-0.52,0.47-0.84C131.92,76.49,131.97,76.16,131.97,75.81z"/>
		<path class="st4" d="M138.98,73.38h-1.92v3.75c0,0.44,0.08,0.75,0.24,0.93s0.42,0.28,0.78,0.28c0.13,0,0.27-0.01,0.43-0.04
			c0.15-0.03,0.29-0.07,0.41-0.13l0.05,1.17c-0.17,0.06-0.36,0.11-0.57,0.14c-0.21,0.04-0.42,0.05-0.65,0.05
			c-0.68,0-1.2-0.19-1.56-0.56c-0.36-0.38-0.54-0.94-0.54-1.69v-3.92h-1.39v-1.17h1.39v-2.07h1.42v2.07h1.92V73.38z"/>
		<path class="st4" d="M147.21,75.76c0,0.08,0,0.16,0,0.24c0,0.08,0,0.16-0.01,0.24h-5.74c0.01,0.3,0.08,0.59,0.21,0.85
			c0.13,0.27,0.3,0.5,0.51,0.7c0.21,0.2,0.46,0.35,0.74,0.46c0.28,0.11,0.58,0.17,0.89,0.17c0.49,0,0.91-0.11,1.26-0.32
			c0.36-0.21,0.63-0.47,0.84-0.78l1.01,0.81c-0.39,0.51-0.84,0.89-1.36,1.13s-1.1,0.36-1.74,0.36c-0.55,0-1.06-0.09-1.52-0.27
			c-0.47-0.18-0.87-0.44-1.2-0.77s-0.6-0.73-0.79-1.2c-0.19-0.47-0.29-0.98-0.29-1.55c0-0.56,0.09-1.07,0.28-1.55
			c0.19-0.47,0.45-0.88,0.79-1.21c0.34-0.33,0.73-0.6,1.19-0.78c0.46-0.19,0.95-0.28,1.48-0.28c0.53,0,1.01,0.09,1.44,0.26
			c0.43,0.17,0.8,0.42,1.1,0.75c0.3,0.32,0.53,0.72,0.69,1.18S147.21,75.18,147.21,75.76z M145.74,75.18
			c-0.01-0.29-0.06-0.55-0.14-0.8c-0.09-0.25-0.21-0.46-0.38-0.65c-0.17-0.18-0.38-0.33-0.62-0.43c-0.25-0.11-0.54-0.16-0.88-0.16
			c-0.3,0-0.59,0.05-0.86,0.16c-0.27,0.11-0.5,0.25-0.7,0.43c-0.2,0.18-0.36,0.4-0.49,0.65c-0.13,0.25-0.2,0.51-0.22,0.8H145.74z"/>
		<path class="st4" d="M154.25,74.04c-0.15-0.23-0.38-0.43-0.69-0.59s-0.63-0.24-0.97-0.24c-0.38,0-0.71,0.07-1,0.21
			c-0.29,0.14-0.54,0.33-0.74,0.57c-0.2,0.24-0.36,0.52-0.46,0.83c-0.11,0.31-0.16,0.64-0.16,0.99c0,0.34,0.05,0.68,0.16,0.99
			c0.11,0.31,0.26,0.59,0.46,0.83c0.2,0.24,0.45,0.43,0.75,0.57c0.29,0.14,0.63,0.21,1.01,0.21c0.37,0,0.7-0.07,1-0.21
			c0.3-0.14,0.55-0.33,0.74-0.58l0.96,0.87c-0.3,0.36-0.69,0.63-1.14,0.83c-0.46,0.2-0.97,0.3-1.55,0.3c-0.56,0-1.07-0.09-1.55-0.27
			c-0.47-0.18-0.88-0.44-1.23-0.77c-0.34-0.33-0.62-0.73-0.81-1.2c-0.2-0.47-0.3-0.99-0.3-1.57c0-0.57,0.1-1.09,0.29-1.55
			c0.19-0.47,0.46-0.87,0.81-1.2c0.35-0.34,0.75-0.6,1.23-0.78c0.47-0.18,0.98-0.27,1.53-0.27c0.51,0,1.01,0.1,1.52,0.3
			c0.5,0.2,0.9,0.5,1.2,0.88L154.25,74.04z"/>
		<path class="st4" d="M160.25,73.38h-1.92v3.75c0,0.44,0.08,0.75,0.24,0.93s0.42,0.28,0.78,0.28c0.13,0,0.27-0.01,0.43-0.04
			c0.15-0.03,0.29-0.07,0.41-0.13l0.05,1.17c-0.17,0.06-0.36,0.11-0.57,0.14c-0.21,0.04-0.42,0.05-0.65,0.05
			c-0.68,0-1.2-0.19-1.56-0.56c-0.36-0.38-0.54-0.94-0.54-1.69v-3.92h-1.39v-1.17h1.39v-2.07h1.42v2.07h1.92V73.38z"/>
		<path class="st4" d="M167.12,78.09h4.81v1.34h-6.32V68.65h1.51V78.09z"/>
		<path class="st4" d="M174.99,69.61c0,0.26-0.09,0.48-0.28,0.66c-0.19,0.17-0.41,0.26-0.67,0.26s-0.48-0.09-0.66-0.27
			c-0.18-0.18-0.27-0.39-0.27-0.65c0-0.26,0.09-0.48,0.27-0.66c0.18-0.18,0.4-0.27,0.66-0.27s0.49,0.09,0.67,0.27
			C174.9,69.12,174.99,69.34,174.99,69.61z M174.77,79.43h-1.43v-7.22h1.43V79.43z"/>
		<path class="st4" d="M180.66,73.38h-1.68v6.05h-1.43v-6.05h-1.43v-1.17h1.43V70.7c0-0.43,0.05-0.82,0.15-1.18
			c0.1-0.36,0.25-0.67,0.47-0.94c0.22-0.26,0.5-0.47,0.84-0.62c0.34-0.15,0.76-0.23,1.24-0.23c0.34,0,0.64,0.04,0.9,0.11l-0.17,1.23
			c-0.11-0.03-0.22-0.06-0.34-0.08c-0.11-0.02-0.24-0.03-0.38-0.03c-0.27,0-0.49,0.05-0.66,0.15c-0.17,0.1-0.3,0.23-0.39,0.39
			c-0.09,0.16-0.15,0.35-0.18,0.56c-0.03,0.21-0.05,0.42-0.05,0.65v1.51h1.68V73.38z"/>
		<path class="st4" d="M188.74,75.76c0,0.08,0,0.16,0,0.24c0,0.08,0,0.16-0.01,0.24h-5.74c0.01,0.3,0.08,0.59,0.21,0.85
			c0.13,0.27,0.3,0.5,0.51,0.7c0.21,0.2,0.46,0.35,0.74,0.46c0.28,0.11,0.58,0.17,0.89,0.17c0.49,0,0.91-0.11,1.26-0.32
			c0.36-0.21,0.63-0.47,0.84-0.78l1.01,0.81c-0.39,0.51-0.84,0.89-1.36,1.13c-0.52,0.24-1.1,0.36-1.74,0.36
			c-0.55,0-1.06-0.09-1.52-0.27c-0.47-0.18-0.87-0.44-1.2-0.77s-0.6-0.73-0.79-1.2c-0.19-0.47-0.29-0.98-0.29-1.55
			c0-0.56,0.09-1.07,0.28-1.55c0.19-0.47,0.45-0.88,0.79-1.21s0.73-0.6,1.19-0.78c0.46-0.19,0.95-0.28,1.48-0.28
			c0.53,0,1.01,0.09,1.44,0.26c0.43,0.17,0.8,0.42,1.1,0.75c0.3,0.32,0.53,0.72,0.69,1.18C188.65,74.66,188.74,75.18,188.74,75.76z
			 M187.27,75.18c-0.01-0.29-0.06-0.55-0.14-0.8c-0.09-0.25-0.21-0.46-0.38-0.65c-0.17-0.18-0.38-0.33-0.62-0.43
			c-0.25-0.11-0.54-0.16-0.88-0.16c-0.3,0-0.59,0.05-0.86,0.16c-0.27,0.11-0.5,0.25-0.7,0.43c-0.2,0.18-0.36,0.4-0.49,0.65
			c-0.13,0.25-0.2,0.51-0.22,0.8H187.27z"/>
		<path class="st4" d="M191.33,72.46h-1.2l1.05-3.81h1.42L191.33,72.46z"/>
		<path class="st4" d="M197.63,74.04c-0.16-0.26-0.39-0.48-0.69-0.65c-0.3-0.17-0.62-0.25-0.99-0.25c-0.16,0-0.32,0.02-0.49,0.05
			c-0.16,0.04-0.31,0.09-0.43,0.17c-0.13,0.08-0.23,0.17-0.3,0.29c-0.08,0.12-0.11,0.26-0.11,0.43c0,0.3,0.14,0.53,0.41,0.68
			c0.27,0.15,0.69,0.28,1.23,0.4c0.35,0.08,0.67,0.18,0.96,0.29c0.3,0.11,0.55,0.25,0.77,0.42c0.22,0.17,0.39,0.37,0.51,0.6
			c0.12,0.23,0.18,0.51,0.18,0.82c0,0.43-0.08,0.79-0.24,1.08c-0.16,0.3-0.38,0.54-0.65,0.72c-0.27,0.19-0.58,0.32-0.92,0.4
			c-0.35,0.08-0.7,0.12-1.07,0.12c-0.55,0-1.08-0.11-1.61-0.32c-0.52-0.21-0.96-0.54-1.3-0.98l1.02-0.87
			c0.19,0.28,0.46,0.52,0.8,0.72c0.34,0.19,0.71,0.29,1.12,0.29c0.18,0,0.36-0.02,0.53-0.05s0.32-0.09,0.46-0.17
			c0.14-0.08,0.25-0.19,0.33-0.32c0.08-0.13,0.12-0.3,0.12-0.5c0-0.33-0.16-0.58-0.48-0.75c-0.32-0.16-0.79-0.31-1.41-0.46
			c-0.24-0.06-0.49-0.13-0.74-0.22c-0.25-0.09-0.47-0.21-0.68-0.36c-0.2-0.15-0.37-0.34-0.5-0.57c-0.13-0.23-0.19-0.51-0.19-0.84
			c0-0.39,0.08-0.72,0.24-1c0.16-0.28,0.36-0.51,0.62-0.69c0.25-0.18,0.54-0.31,0.87-0.4c0.32-0.09,0.66-0.13,1.01-0.13
			c0.52,0,1.02,0.1,1.5,0.3c0.48,0.2,0.86,0.5,1.12,0.88L197.63,74.04z"/>
		<path class="st4" d="M209.96,76.93h0.03l3.18-8.29h2.35v10.79h-1.51v-9.02h-0.03l-3.58,9.02h-0.96l-3.56-9.02h-0.03v9.02h-1.46
			V68.65h2.35L209.96,76.93z"/>
		<path class="st4" d="M225.38,75.81c0,0.56-0.1,1.07-0.3,1.54c-0.2,0.47-0.47,0.87-0.82,1.21c-0.35,0.34-0.76,0.61-1.24,0.79
			c-0.48,0.19-0.99,0.28-1.54,0.28c-0.55,0-1.06-0.09-1.54-0.28c-0.48-0.19-0.89-0.45-1.23-0.79c-0.34-0.34-0.62-0.74-0.81-1.21
			c-0.2-0.47-0.3-0.98-0.3-1.54c0-0.56,0.1-1.07,0.3-1.53c0.2-0.46,0.47-0.86,0.81-1.2c0.35-0.33,0.76-0.6,1.23-0.78
			c0.48-0.19,0.99-0.28,1.54-0.28c0.55,0,1.06,0.09,1.54,0.28c0.48,0.19,0.89,0.45,1.24,0.78c0.35,0.33,0.62,0.73,0.82,1.2
			C225.28,74.74,225.38,75.25,225.38,75.81z M223.88,75.81c0-0.34-0.05-0.67-0.16-0.99c-0.11-0.31-0.26-0.59-0.47-0.83
			s-0.46-0.43-0.76-0.57c-0.3-0.14-0.64-0.21-1.03-0.21c-0.39,0-0.73,0.07-1.03,0.21c-0.3,0.14-0.55,0.33-0.76,0.57
			c-0.2,0.24-0.36,0.51-0.47,0.83c-0.11,0.31-0.16,0.64-0.16,0.99c0,0.34,0.05,0.67,0.16,0.99c0.11,0.31,0.26,0.59,0.47,0.84
			c0.2,0.24,0.46,0.44,0.76,0.58c0.3,0.14,0.64,0.21,1.03,0.21c0.39,0,0.73-0.07,1.03-0.21c0.3-0.14,0.55-0.33,0.76-0.58
			c0.2-0.24,0.36-0.52,0.47-0.84C223.83,76.49,223.88,76.16,223.88,75.81z"/>
		<path class="st4" d="M231.25,74.04c-0.16-0.26-0.39-0.48-0.69-0.65c-0.3-0.17-0.62-0.25-0.99-0.25c-0.16,0-0.32,0.02-0.49,0.05
			c-0.16,0.04-0.31,0.09-0.43,0.17c-0.13,0.08-0.23,0.17-0.3,0.29c-0.08,0.12-0.11,0.26-0.11,0.43c0,0.3,0.14,0.53,0.41,0.68
			s0.69,0.28,1.23,0.4c0.35,0.08,0.67,0.18,0.96,0.29c0.3,0.11,0.55,0.25,0.77,0.42s0.39,0.37,0.51,0.6
			c0.12,0.23,0.18,0.51,0.18,0.82c0,0.43-0.08,0.79-0.24,1.08c-0.16,0.3-0.38,0.54-0.65,0.72c-0.27,0.19-0.58,0.32-0.92,0.4
			c-0.35,0.08-0.7,0.12-1.07,0.12c-0.55,0-1.08-0.11-1.61-0.32c-0.52-0.21-0.96-0.54-1.3-0.98l1.02-0.87
			c0.19,0.28,0.46,0.52,0.8,0.72c0.34,0.19,0.71,0.29,1.12,0.29c0.18,0,0.36-0.02,0.53-0.05s0.32-0.09,0.46-0.17
			c0.14-0.08,0.25-0.19,0.33-0.32c0.08-0.13,0.12-0.3,0.12-0.5c0-0.33-0.16-0.58-0.48-0.75c-0.32-0.16-0.79-0.31-1.41-0.46
			c-0.24-0.06-0.49-0.13-0.74-0.22c-0.25-0.09-0.47-0.21-0.68-0.36c-0.2-0.15-0.37-0.34-0.5-0.57c-0.13-0.23-0.19-0.51-0.19-0.84
			c0-0.39,0.08-0.72,0.24-1c0.16-0.28,0.36-0.51,0.62-0.69c0.25-0.18,0.54-0.31,0.87-0.4c0.32-0.09,0.66-0.13,1.01-0.13
			c0.52,0,1.02,0.1,1.5,0.3c0.48,0.2,0.86,0.5,1.12,0.88L231.25,74.04z"/>
		<path class="st4" d="M237.65,73.38h-1.92v3.75c0,0.44,0.08,0.75,0.24,0.93s0.42,0.28,0.78,0.28c0.13,0,0.27-0.01,0.43-0.04
			c0.15-0.03,0.29-0.07,0.41-0.13l0.05,1.17c-0.17,0.06-0.36,0.11-0.57,0.14c-0.21,0.04-0.42,0.05-0.65,0.05
			c-0.68,0-1.2-0.19-1.56-0.56s-0.54-0.94-0.54-1.69v-3.92h-1.39v-1.17h1.39v-2.07h1.42v2.07h1.92V73.38z"/>
		<path class="st4" d="M40.95,86.93h3.29c0.58,0,1.11,0.06,1.58,0.17c0.48,0.12,0.88,0.3,1.22,0.54c0.34,0.24,0.59,0.55,0.78,0.93
			c0.18,0.38,0.27,0.83,0.27,1.36c0,0.54-0.1,1-0.3,1.39c-0.2,0.39-0.47,0.7-0.82,0.94c-0.35,0.24-0.77,0.42-1.25,0.54
			c-0.48,0.12-1,0.17-1.56,0.17h-1.71v4.74h-1.51V86.93z M42.45,91.7h1.6c0.37,0,0.7-0.03,1.01-0.1c0.31-0.07,0.58-0.17,0.8-0.3
			c0.22-0.14,0.4-0.32,0.52-0.54c0.12-0.22,0.18-0.5,0.18-0.82s-0.06-0.6-0.19-0.82c-0.13-0.22-0.3-0.4-0.52-0.53
			c-0.22-0.14-0.48-0.23-0.78-0.29c-0.3-0.06-0.63-0.08-0.99-0.08h-1.63V91.7z"/>
		<path class="st4" d="M49.22,91.3c-0.01-0.3-0.03-0.57-0.05-0.81h1.36c0.02,0.18,0.04,0.39,0.05,0.63
			c0.01,0.24,0.02,0.44,0.02,0.59h0.05c0.2-0.43,0.5-0.77,0.89-1.03c0.39-0.26,0.83-0.39,1.32-0.39c0.22,0,0.41,0.02,0.56,0.06
			l-0.06,1.33c-0.2-0.05-0.42-0.08-0.66-0.08c-0.35,0-0.64,0.06-0.9,0.19c-0.25,0.13-0.46,0.3-0.63,0.51
			c-0.17,0.21-0.29,0.46-0.37,0.74s-0.12,0.57-0.12,0.88v3.79h-1.43v-5.67C49.23,91.85,49.23,91.6,49.22,91.3z"/>
		<path class="st4" d="M61.22,94.04c0,0.08,0,0.16,0,0.24c0,0.08-0.01,0.16-0.02,0.24h-5.74c0.01,0.3,0.08,0.59,0.21,0.85
			c0.13,0.27,0.3,0.5,0.51,0.7c0.21,0.2,0.46,0.35,0.74,0.46c0.28,0.11,0.58,0.17,0.89,0.17c0.49,0,0.91-0.11,1.26-0.32
			c0.36-0.21,0.63-0.47,0.84-0.78l1.01,0.81c-0.39,0.51-0.84,0.89-1.36,1.13c-0.52,0.24-1.1,0.36-1.74,0.36
			c-0.55,0-1.06-0.09-1.52-0.27c-0.47-0.18-0.87-0.44-1.2-0.77c-0.34-0.33-0.6-0.73-0.79-1.2C54.1,95.21,54,94.69,54,94.12
			c0-0.56,0.09-1.07,0.28-1.55c0.19-0.47,0.45-0.88,0.79-1.21c0.34-0.33,0.73-0.6,1.19-0.78c0.46-0.19,0.95-0.28,1.48-0.28
			c0.53,0,1.01,0.09,1.44,0.26c0.43,0.17,0.8,0.42,1.1,0.75c0.3,0.32,0.53,0.72,0.69,1.18C61.14,92.94,61.22,93.46,61.22,94.04z
			 M59.76,93.46c-0.01-0.29-0.06-0.55-0.15-0.8c-0.09-0.25-0.21-0.46-0.38-0.65c-0.17-0.18-0.38-0.33-0.62-0.43
			c-0.25-0.11-0.54-0.16-0.88-0.16c-0.3,0-0.59,0.05-0.86,0.16c-0.27,0.11-0.5,0.25-0.7,0.43c-0.2,0.18-0.36,0.4-0.49,0.65
			c-0.13,0.25-0.2,0.51-0.22,0.8H59.76z"/>
		<path class="st4" d="M68.26,92.32c-0.15-0.23-0.38-0.43-0.69-0.59c-0.3-0.16-0.63-0.24-0.98-0.24c-0.38,0-0.71,0.07-1,0.21
			c-0.29,0.14-0.54,0.33-0.74,0.57c-0.2,0.24-0.36,0.52-0.46,0.83c-0.11,0.31-0.16,0.64-0.16,0.99c0,0.34,0.05,0.68,0.16,0.99
			c0.11,0.31,0.26,0.59,0.46,0.83c0.2,0.24,0.45,0.43,0.75,0.57c0.29,0.14,0.63,0.21,1.01,0.21c0.37,0,0.7-0.07,1-0.21
			c0.3-0.14,0.55-0.33,0.74-0.58l0.96,0.87c-0.3,0.36-0.69,0.63-1.14,0.83c-0.46,0.2-0.97,0.3-1.55,0.3c-0.56,0-1.07-0.09-1.55-0.27
			c-0.47-0.18-0.88-0.44-1.23-0.77s-0.62-0.73-0.82-1.2c-0.2-0.47-0.3-0.99-0.3-1.57c0-0.57,0.1-1.09,0.29-1.55
			c0.19-0.47,0.46-0.87,0.81-1.2c0.35-0.34,0.75-0.6,1.23-0.78c0.47-0.18,0.98-0.27,1.53-0.27c0.51,0,1.01,0.1,1.52,0.3
			c0.5,0.2,0.9,0.5,1.2,0.88L68.26,92.32z"/>
		<path class="st4" d="M72.41,87.89c0,0.26-0.09,0.48-0.28,0.66c-0.19,0.17-0.41,0.26-0.67,0.26s-0.48-0.09-0.66-0.27
			c-0.18-0.18-0.27-0.39-0.27-0.65c0-0.26,0.09-0.48,0.27-0.66c0.18-0.18,0.4-0.27,0.66-0.27s0.49,0.09,0.67,0.27
			C72.31,87.4,72.41,87.62,72.41,87.89z M72.18,97.71h-1.43v-7.22h1.43V97.71z"/>
		<path class="st4" d="M81.99,94.09c0,0.56-0.1,1.07-0.3,1.54c-0.2,0.47-0.47,0.87-0.82,1.21c-0.35,0.34-0.76,0.61-1.24,0.79
			c-0.48,0.19-0.99,0.28-1.54,0.28c-0.55,0-1.06-0.09-1.54-0.28c-0.48-0.19-0.89-0.45-1.23-0.79c-0.35-0.34-0.62-0.74-0.82-1.21
			c-0.2-0.47-0.3-0.98-0.3-1.54c0-0.56,0.1-1.07,0.3-1.53c0.2-0.46,0.47-0.86,0.82-1.2c0.35-0.33,0.76-0.6,1.23-0.78
			c0.48-0.19,0.99-0.28,1.54-0.28c0.55,0,1.06,0.09,1.54,0.28c0.48,0.19,0.89,0.45,1.24,0.78s0.62,0.73,0.82,1.2
			C81.89,93.02,81.99,93.53,81.99,94.09z M80.49,94.1c0-0.34-0.05-0.67-0.16-0.99c-0.11-0.31-0.26-0.59-0.47-0.83
			c-0.2-0.24-0.46-0.43-0.76-0.57c-0.3-0.14-0.64-0.21-1.03-0.21c-0.39,0-0.73,0.07-1.03,0.21c-0.3,0.14-0.55,0.33-0.76,0.57
			c-0.2,0.24-0.36,0.51-0.47,0.83c-0.11,0.31-0.16,0.64-0.16,0.99c0,0.34,0.05,0.67,0.16,0.99c0.11,0.31,0.26,0.59,0.47,0.84
			c0.2,0.24,0.46,0.44,0.76,0.58c0.3,0.14,0.64,0.21,1.03,0.21c0.39,0,0.73-0.07,1.03-0.21c0.3-0.14,0.55-0.33,0.76-0.58
			c0.2-0.24,0.36-0.52,0.47-0.84C80.44,94.77,80.49,94.44,80.49,94.1z"/>
		<path class="st4" d="M89.06,97.71c-0.02-0.18-0.04-0.39-0.05-0.62C89,96.87,89,96.68,89,96.53h-0.03
			c-0.18,0.39-0.49,0.71-0.92,0.98c-0.43,0.27-0.91,0.4-1.44,0.4c-0.47,0-0.87-0.08-1.21-0.23c-0.34-0.15-0.62-0.36-0.84-0.63
			c-0.22-0.27-0.38-0.58-0.49-0.94c-0.11-0.36-0.16-0.74-0.16-1.14v-4.48h1.43v3.99c0,0.3,0.02,0.58,0.07,0.85
			c0.05,0.27,0.13,0.51,0.25,0.71c0.12,0.2,0.29,0.37,0.5,0.49c0.21,0.12,0.49,0.18,0.82,0.18c0.58,0,1.05-0.22,1.4-0.65
			c0.36-0.43,0.53-1.01,0.53-1.73v-3.84h1.43v5.67c0,0.19,0,0.44,0.02,0.75c0.01,0.3,0.02,0.57,0.05,0.81H89.06z"/>
		<path class="st4" d="M96.73,92.32c-0.16-0.26-0.39-0.48-0.69-0.65c-0.29-0.17-0.62-0.25-0.99-0.25c-0.16,0-0.33,0.02-0.49,0.05
			c-0.16,0.04-0.31,0.09-0.43,0.17c-0.13,0.08-0.23,0.17-0.3,0.29c-0.08,0.12-0.11,0.26-0.11,0.43c0,0.3,0.14,0.53,0.41,0.68
			c0.27,0.15,0.69,0.28,1.23,0.4c0.35,0.08,0.67,0.18,0.96,0.29c0.29,0.11,0.55,0.25,0.77,0.42c0.22,0.17,0.39,0.37,0.51,0.6
			c0.12,0.23,0.18,0.51,0.18,0.82c0,0.43-0.08,0.79-0.24,1.08c-0.16,0.3-0.38,0.54-0.65,0.72c-0.27,0.19-0.58,0.32-0.92,0.4
			c-0.35,0.08-0.7,0.12-1.07,0.12c-0.55,0-1.08-0.11-1.61-0.32c-0.52-0.21-0.96-0.54-1.3-0.98l1.02-0.87
			c0.19,0.28,0.46,0.52,0.8,0.72c0.34,0.19,0.71,0.29,1.12,0.29c0.18,0,0.36-0.02,0.53-0.05s0.32-0.09,0.46-0.17
			c0.14-0.08,0.25-0.19,0.33-0.32c0.08-0.13,0.12-0.3,0.12-0.5c0-0.33-0.16-0.58-0.48-0.75c-0.32-0.16-0.79-0.31-1.41-0.46
			c-0.24-0.06-0.49-0.13-0.74-0.22c-0.25-0.09-0.47-0.21-0.68-0.36c-0.2-0.15-0.37-0.34-0.49-0.57c-0.13-0.23-0.19-0.51-0.19-0.84
			c0-0.39,0.08-0.72,0.24-1c0.16-0.28,0.36-0.51,0.62-0.69c0.25-0.18,0.54-0.31,0.87-0.4c0.33-0.09,0.66-0.13,1.01-0.13
			c0.52,0,1.02,0.1,1.5,0.3c0.48,0.2,0.86,0.5,1.12,0.88L96.73,92.32z"/>
		<path class="st4" d="M103.65,97.71h-1.68l4.68-10.79h1.37l4.63,10.79h-1.71l-1.1-2.65h-5.12L103.65,97.71z M105.27,93.74h4.04
			l-2.01-5.06L105.27,93.74z"/>
		<path class="st4" d="M117.86,92.32c-0.16-0.26-0.39-0.48-0.69-0.65c-0.29-0.17-0.62-0.25-0.99-0.25c-0.16,0-0.33,0.02-0.49,0.05
			c-0.16,0.04-0.31,0.09-0.43,0.17c-0.13,0.08-0.23,0.17-0.3,0.29c-0.08,0.12-0.11,0.26-0.11,0.43c0,0.3,0.14,0.53,0.41,0.68
			c0.27,0.15,0.69,0.28,1.23,0.4c0.35,0.08,0.67,0.18,0.96,0.29c0.29,0.11,0.55,0.25,0.77,0.42c0.22,0.17,0.39,0.37,0.51,0.6
			c0.12,0.23,0.18,0.51,0.18,0.82c0,0.43-0.08,0.79-0.24,1.08c-0.16,0.3-0.38,0.54-0.65,0.72c-0.27,0.19-0.58,0.32-0.92,0.4
			c-0.35,0.08-0.7,0.12-1.07,0.12c-0.55,0-1.08-0.11-1.61-0.32c-0.52-0.21-0.96-0.54-1.3-0.98l1.02-0.87
			c0.19,0.28,0.46,0.52,0.8,0.72c0.34,0.19,0.71,0.29,1.12,0.29c0.18,0,0.36-0.02,0.53-0.05s0.32-0.09,0.46-0.17
			c0.14-0.08,0.25-0.19,0.33-0.32c0.08-0.13,0.12-0.3,0.12-0.5c0-0.33-0.16-0.58-0.48-0.75c-0.32-0.16-0.79-0.31-1.41-0.46
			c-0.24-0.06-0.49-0.13-0.74-0.22c-0.25-0.09-0.47-0.21-0.68-0.36c-0.2-0.15-0.37-0.34-0.49-0.57c-0.13-0.23-0.19-0.51-0.19-0.84
			c0-0.39,0.08-0.72,0.24-1c0.16-0.28,0.36-0.51,0.62-0.69c0.25-0.18,0.54-0.31,0.87-0.4c0.33-0.09,0.66-0.13,1.01-0.13
			c0.52,0,1.02,0.1,1.5,0.3c0.48,0.2,0.86,0.5,1.12,0.88L117.86,92.32z"/>
		<path class="st4" d="M124.63,92.32c-0.16-0.26-0.39-0.48-0.69-0.65c-0.29-0.17-0.62-0.25-0.99-0.25c-0.16,0-0.33,0.02-0.49,0.05
			c-0.16,0.04-0.31,0.09-0.43,0.17c-0.13,0.08-0.23,0.17-0.3,0.29c-0.08,0.12-0.11,0.26-0.11,0.43c0,0.3,0.14,0.53,0.41,0.68
			c0.27,0.15,0.69,0.28,1.23,0.4c0.35,0.08,0.67,0.18,0.96,0.29c0.29,0.11,0.55,0.25,0.77,0.42c0.22,0.17,0.39,0.37,0.51,0.6
			c0.12,0.23,0.18,0.51,0.18,0.82c0,0.43-0.08,0.79-0.24,1.08c-0.16,0.3-0.38,0.54-0.65,0.72c-0.27,0.19-0.58,0.32-0.92,0.4
			c-0.35,0.08-0.7,0.12-1.07,0.12c-0.55,0-1.08-0.11-1.61-0.32c-0.52-0.21-0.96-0.54-1.3-0.98l1.02-0.87
			c0.19,0.28,0.46,0.52,0.8,0.72c0.34,0.19,0.71,0.29,1.12,0.29c0.18,0,0.36-0.02,0.53-0.05c0.17-0.04,0.32-0.09,0.46-0.17
			c0.14-0.08,0.25-0.19,0.33-0.32c0.08-0.13,0.12-0.3,0.12-0.5c0-0.33-0.16-0.58-0.48-0.75c-0.32-0.16-0.79-0.31-1.41-0.46
			c-0.24-0.06-0.49-0.13-0.74-0.22c-0.25-0.09-0.47-0.21-0.68-0.36c-0.2-0.15-0.37-0.34-0.49-0.57c-0.13-0.23-0.19-0.51-0.19-0.84
			c0-0.39,0.08-0.72,0.24-1c0.16-0.28,0.36-0.51,0.62-0.69c0.25-0.18,0.54-0.31,0.87-0.4c0.33-0.09,0.66-0.13,1.01-0.13
			c0.52,0,1.02,0.1,1.5,0.3c0.48,0.2,0.86,0.5,1.12,0.88L124.63,92.32z"/>
		<path class="st4" d="M134.24,94.04c0,0.08,0,0.16,0,0.24c0,0.08-0.01,0.16-0.02,0.24h-5.74c0.01,0.3,0.08,0.59,0.21,0.85
			c0.13,0.27,0.3,0.5,0.51,0.7c0.21,0.2,0.46,0.35,0.74,0.46c0.28,0.11,0.58,0.17,0.89,0.17c0.49,0,0.91-0.11,1.26-0.32
			c0.36-0.21,0.63-0.47,0.84-0.78l1.01,0.81c-0.39,0.51-0.84,0.89-1.36,1.13c-0.52,0.24-1.1,0.36-1.74,0.36
			c-0.55,0-1.06-0.09-1.52-0.27c-0.47-0.18-0.87-0.44-1.2-0.77c-0.34-0.33-0.6-0.73-0.79-1.2c-0.19-0.47-0.29-0.98-0.29-1.55
			c0-0.56,0.09-1.07,0.28-1.55c0.19-0.47,0.45-0.88,0.79-1.21c0.34-0.33,0.73-0.6,1.19-0.78c0.46-0.19,0.95-0.28,1.48-0.28
			c0.53,0,1.01,0.09,1.44,0.26c0.43,0.17,0.8,0.42,1.1,0.75c0.3,0.32,0.53,0.72,0.69,1.18C134.16,92.94,134.24,93.46,134.24,94.04z
			 M132.78,93.46c-0.01-0.29-0.06-0.55-0.15-0.8c-0.09-0.25-0.21-0.46-0.38-0.65c-0.17-0.18-0.38-0.33-0.62-0.43
			c-0.25-0.11-0.54-0.16-0.88-0.16c-0.3,0-0.59,0.05-0.86,0.16c-0.27,0.11-0.5,0.25-0.7,0.43c-0.2,0.18-0.36,0.4-0.49,0.65
			c-0.13,0.25-0.2,0.51-0.22,0.8H132.78z"/>
		<path class="st4" d="M139.76,91.67h-1.92v3.75c0,0.44,0.08,0.75,0.24,0.93s0.42,0.28,0.78,0.28c0.13,0,0.27-0.01,0.43-0.04
			c0.15-0.03,0.29-0.07,0.41-0.13l0.05,1.17c-0.17,0.06-0.36,0.11-0.57,0.14c-0.21,0.04-0.42,0.05-0.65,0.05
			c-0.68,0-1.2-0.19-1.56-0.56c-0.36-0.38-0.54-0.94-0.54-1.69v-3.92h-1.39v-1.17h1.39v-2.07h1.42v2.07h1.92V91.67z"/>
		<path class="st4" d="M145.13,92.32c-0.16-0.26-0.39-0.48-0.69-0.65c-0.3-0.17-0.62-0.25-0.99-0.25c-0.16,0-0.32,0.02-0.49,0.05
			c-0.16,0.04-0.31,0.09-0.43,0.17c-0.13,0.08-0.23,0.17-0.3,0.29c-0.08,0.12-0.11,0.26-0.11,0.43c0,0.3,0.14,0.53,0.41,0.68
			c0.27,0.15,0.69,0.28,1.23,0.4c0.35,0.08,0.67,0.18,0.96,0.29c0.3,0.11,0.55,0.25,0.77,0.42s0.39,0.37,0.51,0.6
			c0.12,0.23,0.18,0.51,0.18,0.82c0,0.43-0.08,0.79-0.24,1.08c-0.16,0.3-0.38,0.54-0.65,0.72c-0.27,0.19-0.58,0.32-0.92,0.4
			c-0.35,0.08-0.7,0.12-1.07,0.12c-0.55,0-1.08-0.11-1.61-0.32c-0.52-0.21-0.96-0.54-1.3-0.98l1.02-0.87
			c0.19,0.28,0.46,0.52,0.8,0.72c0.34,0.19,0.71,0.29,1.12,0.29c0.18,0,0.36-0.02,0.53-0.05s0.32-0.09,0.46-0.17
			c0.14-0.08,0.25-0.19,0.33-0.32c0.08-0.13,0.12-0.3,0.12-0.5c0-0.33-0.16-0.58-0.48-0.75c-0.32-0.16-0.79-0.31-1.41-0.46
			c-0.24-0.06-0.49-0.13-0.74-0.22c-0.25-0.09-0.47-0.21-0.68-0.36c-0.2-0.15-0.37-0.34-0.5-0.57c-0.13-0.23-0.19-0.51-0.19-0.84
			c0-0.39,0.08-0.72,0.24-1c0.16-0.28,0.36-0.51,0.62-0.69c0.25-0.18,0.54-0.31,0.87-0.4c0.32-0.09,0.66-0.13,1.01-0.13
			c0.52,0,1.02,0.1,1.5,0.3c0.48,0.2,0.86,0.5,1.12,0.88L145.13,92.32z"/>
		<path class="st4" d="M149.77,96.8c0,0.26-0.1,0.5-0.29,0.7c-0.19,0.2-0.44,0.3-0.73,0.3c-0.28,0-0.52-0.1-0.72-0.3
			c-0.2-0.2-0.3-0.43-0.3-0.69c0-0.27,0.1-0.51,0.29-0.71c0.19-0.2,0.44-0.3,0.73-0.3c0.3,0,0.54,0.1,0.73,0.29
			C149.67,96.29,149.77,96.53,149.77,96.8z"/>
		<path class="st4" d="M153.73,96.8c0,0.26-0.1,0.5-0.29,0.7c-0.19,0.2-0.44,0.3-0.73,0.3c-0.28,0-0.52-0.1-0.72-0.3
			c-0.2-0.2-0.3-0.43-0.3-0.69c0-0.27,0.1-0.51,0.29-0.71c0.19-0.2,0.44-0.3,0.73-0.3c0.3,0,0.54,0.1,0.73,0.29
			C153.63,96.29,153.73,96.53,153.73,96.8z"/>
		<path class="st4" d="M157.69,96.8c0,0.26-0.1,0.5-0.29,0.7c-0.19,0.2-0.44,0.3-0.73,0.3c-0.28,0-0.52-0.1-0.72-0.3
			c-0.2-0.2-0.3-0.43-0.3-0.69c0-0.27,0.1-0.51,0.29-0.71c0.19-0.2,0.44-0.3,0.73-0.3c0.3,0,0.54,0.1,0.73,0.29
			C157.59,96.29,157.69,96.53,157.69,96.8z"/>
		<path class="st4" d="M170.84,92.31c0,0.83-0.14,1.6-0.43,2.29c-0.29,0.7-0.69,1.3-1.2,1.8c-0.51,0.5-1.11,0.89-1.81,1.17
			c-0.7,0.28-1.46,0.42-2.28,0.42c-0.82,0-1.58-0.14-2.28-0.42c-0.7-0.28-1.3-0.67-1.81-1.17c-0.51-0.5-0.9-1.1-1.19-1.8
			c-0.28-0.7-0.43-1.46-0.43-2.29c0-0.84,0.14-1.61,0.43-2.31c0.29-0.7,0.68-1.29,1.19-1.78c0.51-0.49,1.11-0.88,1.81-1.15
			c0.7-0.27,1.46-0.41,2.28-0.41c0.82,0,1.58,0.14,2.28,0.41c0.7,0.27,1.31,0.66,1.81,1.15c0.51,0.49,0.91,1.09,1.2,1.78
			C170.69,90.69,170.84,91.46,170.84,92.31z M169.21,92.31c0-0.59-0.1-1.15-0.29-1.67s-0.47-0.98-0.82-1.38
			c-0.36-0.4-0.78-0.71-1.29-0.94c-0.5-0.23-1.07-0.34-1.7-0.34c-0.62,0-1.18,0.11-1.68,0.34c-0.5,0.23-0.93,0.54-1.28,0.94
			c-0.35,0.4-0.62,0.86-0.81,1.38c-0.19,0.52-0.29,1.08-0.29,1.67c0,0.6,0.1,1.16,0.29,1.69c0.19,0.53,0.47,0.99,0.82,1.38
			c0.36,0.39,0.78,0.7,1.28,0.92c0.5,0.22,1.06,0.34,1.68,0.34c0.62,0,1.18-0.11,1.69-0.34c0.51-0.22,0.94-0.53,1.3-0.92
			c0.35-0.39,0.63-0.85,0.82-1.38S169.21,92.9,169.21,92.31z"/>
		<path class="st4" d="M177.91,97.71c-0.02-0.18-0.04-0.39-0.05-0.62c-0.01-0.23-0.02-0.42-0.02-0.57h-0.03
			c-0.18,0.39-0.49,0.71-0.92,0.98c-0.43,0.27-0.91,0.4-1.44,0.4c-0.47,0-0.87-0.08-1.21-0.23c-0.34-0.15-0.62-0.36-0.84-0.63
			c-0.22-0.27-0.38-0.58-0.49-0.94c-0.11-0.36-0.16-0.74-0.16-1.14v-4.48h1.43v3.99c0,0.3,0.02,0.58,0.07,0.85
			c0.04,0.27,0.13,0.51,0.25,0.71c0.12,0.2,0.29,0.37,0.5,0.49c0.21,0.12,0.49,0.18,0.82,0.18c0.58,0,1.05-0.22,1.4-0.65
			s0.53-1.01,0.53-1.73v-3.84h1.43v5.67c0,0.19,0,0.44,0.01,0.75c0.01,0.3,0.03,0.57,0.05,0.81H177.91z"/>
		<path class="st4" d="M181.67,91.3c-0.01-0.3-0.03-0.57-0.05-0.81h1.36c0.02,0.18,0.03,0.39,0.05,0.63
			c0.01,0.24,0.01,0.44,0.01,0.59h0.05c0.2-0.43,0.5-0.77,0.89-1.03c0.39-0.26,0.83-0.39,1.32-0.39c0.22,0,0.41,0.02,0.56,0.06
			l-0.06,1.33c-0.2-0.05-0.42-0.08-0.65-0.08c-0.35,0-0.65,0.06-0.9,0.19c-0.25,0.13-0.46,0.3-0.63,0.51
			c-0.17,0.21-0.29,0.46-0.37,0.74c-0.08,0.28-0.12,0.57-0.12,0.88v3.79h-1.43v-5.67C181.68,91.85,181.68,91.6,181.67,91.3z"/>
		<path class="st4" d="M200.33,96.04c-0.43,0.58-0.98,1.05-1.66,1.41c-0.68,0.36-1.5,0.54-2.45,0.54c-0.82,0-1.58-0.14-2.28-0.42
			c-0.7-0.28-1.3-0.67-1.8-1.17c-0.5-0.5-0.9-1.1-1.18-1.8c-0.28-0.7-0.43-1.46-0.43-2.29c0-0.84,0.15-1.61,0.44-2.31
			c0.29-0.7,0.69-1.29,1.2-1.78c0.51-0.49,1.12-0.88,1.82-1.15s1.46-0.41,2.28-0.41c0.37,0,0.74,0.04,1.11,0.11
			c0.38,0.07,0.74,0.18,1.08,0.32c0.35,0.14,0.66,0.32,0.94,0.53c0.29,0.21,0.53,0.45,0.73,0.72l-1.19,0.91
			c-0.26-0.37-0.64-0.67-1.12-0.91c-0.48-0.24-1-0.36-1.56-0.36c-0.63,0-1.2,0.11-1.7,0.34c-0.5,0.23-0.93,0.54-1.29,0.94
			c-0.36,0.4-0.63,0.86-0.82,1.38c-0.19,0.52-0.29,1.08-0.29,1.67c0,0.61,0.09,1.18,0.28,1.71c0.19,0.53,0.46,0.99,0.81,1.38
			c0.35,0.39,0.78,0.7,1.28,0.92c0.5,0.22,1.06,0.33,1.68,0.33c0.61,0,1.16-0.12,1.66-0.37c0.5-0.24,0.91-0.6,1.23-1.07
			L200.33,96.04z"/>
		<path class="st4" d="M203.29,91.59c0.17-0.35,0.47-0.66,0.88-0.91c0.42-0.25,0.88-0.38,1.4-0.38c0.47,0,0.87,0.08,1.2,0.24
			c0.33,0.16,0.61,0.37,0.84,0.63c0.22,0.26,0.39,0.57,0.5,0.93c0.11,0.36,0.16,0.74,0.16,1.14v4.48h-1.43v-4
			c0-0.3-0.02-0.58-0.07-0.84c-0.05-0.26-0.13-0.5-0.25-0.7c-0.12-0.2-0.29-0.37-0.5-0.49c-0.21-0.12-0.48-0.18-0.81-0.18
			c-0.57,0-1.04,0.22-1.4,0.65c-0.37,0.43-0.55,1.01-0.55,1.73v3.83h-1.43V86.2h1.43v5.39H203.29z"/>
		<path class="st4" d="M212.36,87.89c0,0.26-0.09,0.48-0.28,0.66c-0.19,0.17-0.41,0.26-0.67,0.26s-0.48-0.09-0.66-0.27
			c-0.18-0.18-0.27-0.39-0.27-0.65c0-0.26,0.09-0.48,0.27-0.66c0.18-0.18,0.4-0.27,0.66-0.27s0.49,0.09,0.67,0.27
			C212.27,87.4,212.36,87.62,212.36,87.89z M212.14,97.71h-1.43v-7.22h1.43V97.71z"/>
		<path class="st4" d="M216.1,97.71h-1.43V86.2h1.43V97.71z"/>
		<path class="st4" d="M224.35,96.57c-0.27,0.44-0.65,0.77-1.12,1c-0.47,0.23-0.97,0.34-1.49,0.34c-0.56,0-1.06-0.1-1.51-0.3
			c-0.45-0.2-0.83-0.47-1.14-0.81c-0.31-0.35-0.56-0.75-0.73-1.22s-0.26-0.96-0.26-1.49c0-0.53,0.09-1.02,0.26-1.49
			c0.17-0.46,0.42-0.87,0.74-1.21c0.32-0.34,0.7-0.61,1.15-0.81c0.45-0.19,0.94-0.29,1.48-0.29c0.59,0,1.1,0.12,1.54,0.37
			c0.44,0.25,0.78,0.55,1.04,0.91h0.03V86.2h1.43v11.52h-1.39v-1.14H224.35z M219.6,94.1c0,0.33,0.05,0.66,0.15,0.97
			c0.1,0.31,0.25,0.59,0.46,0.84c0.2,0.24,0.45,0.44,0.75,0.58c0.29,0.15,0.64,0.22,1.04,0.22c0.36,0,0.7-0.07,1-0.21
			c0.3-0.14,0.56-0.33,0.77-0.57c0.21-0.24,0.38-0.51,0.49-0.83c0.12-0.31,0.18-0.64,0.18-0.99c0-0.34-0.06-0.67-0.18-0.99
			c-0.12-0.31-0.28-0.59-0.49-0.83s-0.47-0.44-0.77-0.58c-0.3-0.14-0.63-0.21-1-0.21c-0.4,0-0.74,0.07-1.04,0.21
			c-0.3,0.14-0.54,0.33-0.75,0.58s-0.36,0.52-0.46,0.83C219.65,93.44,219.6,93.76,219.6,94.1z"/>
		<path class="st4" d="M228.25,91.3c-0.01-0.3-0.03-0.57-0.05-0.81h1.36c0.02,0.18,0.03,0.39,0.05,0.63
			c0.01,0.24,0.01,0.44,0.01,0.59h0.05c0.2-0.43,0.5-0.77,0.89-1.03c0.39-0.26,0.83-0.39,1.32-0.39c0.22,0,0.41,0.02,0.56,0.06
			l-0.06,1.33c-0.2-0.05-0.42-0.08-0.65-0.08c-0.35,0-0.65,0.06-0.9,0.19c-0.25,0.13-0.46,0.3-0.63,0.51
			c-0.17,0.21-0.29,0.46-0.37,0.74c-0.08,0.28-0.12,0.57-0.12,0.88v3.79h-1.43v-5.67C228.27,91.85,228.26,91.6,228.25,91.3z"/>
		<path class="st4" d="M240.26,94.04c0,0.08,0,0.16,0,0.24c0,0.08,0,0.16-0.01,0.24h-5.74c0.01,0.3,0.08,0.59,0.21,0.85
			c0.13,0.27,0.3,0.5,0.51,0.7c0.21,0.2,0.46,0.35,0.74,0.46c0.28,0.11,0.58,0.17,0.89,0.17c0.49,0,0.91-0.11,1.26-0.32
			c0.36-0.21,0.63-0.47,0.84-0.78l1.01,0.81c-0.39,0.51-0.84,0.89-1.36,1.13s-1.1,0.36-1.74,0.36c-0.55,0-1.06-0.09-1.52-0.27
			c-0.47-0.18-0.87-0.44-1.2-0.77c-0.33-0.33-0.6-0.73-0.79-1.2c-0.19-0.47-0.29-0.98-0.29-1.55c0-0.56,0.09-1.07,0.28-1.55
			c0.19-0.47,0.45-0.88,0.79-1.21s0.73-0.6,1.19-0.78c0.46-0.19,0.95-0.28,1.48-0.28c0.53,0,1.01,0.09,1.44,0.26
			c0.43,0.17,0.8,0.42,1.1,0.75c0.3,0.32,0.53,0.72,0.69,1.18S240.26,93.46,240.26,94.04z M238.8,93.46
			c-0.01-0.29-0.06-0.55-0.14-0.8c-0.09-0.25-0.21-0.46-0.38-0.65c-0.17-0.18-0.38-0.33-0.62-0.43c-0.25-0.11-0.54-0.16-0.88-0.16
			c-0.3,0-0.59,0.05-0.86,0.16c-0.27,0.11-0.5,0.25-0.7,0.43c-0.2,0.18-0.36,0.4-0.49,0.65c-0.13,0.25-0.2,0.51-0.22,0.8H238.8z"/>
		<path class="st4" d="M243.53,90.49c0.02,0.18,0.03,0.39,0.05,0.62c0.01,0.23,0.01,0.42,0.01,0.57h0.05
			c0.09-0.19,0.22-0.37,0.37-0.54c0.16-0.17,0.34-0.31,0.54-0.44c0.2-0.13,0.43-0.23,0.67-0.3c0.24-0.07,0.5-0.11,0.76-0.11
			c0.47,0,0.87,0.08,1.2,0.24s0.61,0.37,0.84,0.63c0.22,0.26,0.39,0.57,0.49,0.93c0.11,0.36,0.16,0.74,0.16,1.14v4.48h-1.43v-4.01
			c0-0.29-0.02-0.57-0.07-0.84c-0.05-0.26-0.13-0.5-0.25-0.7c-0.12-0.2-0.29-0.37-0.5-0.49c-0.21-0.12-0.49-0.18-0.82-0.18
			c-0.57,0-1.03,0.22-1.39,0.65c-0.36,0.43-0.54,1.01-0.54,1.73v3.84h-1.43v-5.67c0-0.19,0-0.44-0.01-0.75s-0.03-0.57-0.05-0.81
			H243.53z"/>
	</g>
</g>
</svg>
